<?xml version="1.0" encoding="UTF-8" standalone="no"?>
<!DOCTYPE svg PUBLIC "-//W3C//DTD SVG 1.1//EN" "http://www.w3.org/Graphics/SVG/1.1/DTD/svg11.dtd">
<svg width="100%" height="100%" viewBox="0 0 900 900" version="1.1" xmlns="http://www.w3.org/2000/svg" xmlns:xlink="http://www.w3.org/1999/xlink" xml:space="preserve" xmlns:serif="http://www.serif.com/" style="fill-rule:evenodd;clip-rule:evenodd;stroke-linejoin:round;stroke-miterlimit:2;">
    <g id="Artboard1" transform="matrix(0.769231,0,0,1.63339,0,0)">
        <rect x="0" y="0" width="1170" height="551" style="fill:none;"/>
        <g transform="matrix(1.82752,0,0,0.860651,-237.383,-111.793)">
            <path d="M567.395,685.346C560.385,680.822 554.011,675.396 548.442,669.233C554.093,675.489 560.569,680.983 567.701,685.543C532.291,703.31 492.304,713.308 450,713.308C304.676,713.308 186.692,595.324 186.692,450C186.692,304.676 304.676,186.692 450,186.692C595.324,186.692 713.308,304.676 713.308,450C713.308,484.907 706.501,518.236 694.119,548.743C682.832,533.839 667.23,522.38 649.168,516.252C655.327,495.321 658.642,473.069 658.642,450C658.642,327.489 565.152,228.025 450,228.025C334.848,228.025 241.358,327.489 241.358,450C241.358,572.511 334.848,671.975 450,671.975C480.723,671.975 509.903,664.895 536.145,652.13L535.965,651.809C528.354,638.207 524.025,622.522 524.025,605.833C524.025,553.599 566.433,511.192 618.667,511.192C629.338,511.192 639.599,512.962 649.168,516.252L649.59,516.397C667.463,522.568 682.914,533.954 694.119,548.743C688.966,561.465 682.846,573.694 675.842,585.348C669.475,567.777 655.067,554.002 637.015,548.356L636.744,548.271C631.037,546.499 624.963,545.55 618.667,545.55C585.075,545.55 557.803,572.562 557.803,605.833C557.803,616.374 560.54,626.286 565.364,634.9L565.551,635.234C573.522,649.347 587.062,659.959 603.234,664.082L603.464,664.145C608.312,665.456 613.412,666.117 618.667,666.117C652.258,666.117 679.53,639.105 679.53,605.833C679.53,598.633 678.253,591.727 675.842,585.348C682.845,573.704 688.972,561.474 694.119,548.743C706.166,564.615 713.308,584.396 713.308,605.833C713.308,658.067 670.901,700.475 618.667,700.475C599.899,700.475 582.4,695 567.701,685.543L567.395,685.346Z"/>
        </g>
    </g>
</svg>
